<svg width="30" height="30" viewBox="0 0 30 30" fill="none" xmlns="http://www.w3.org/2000/svg">
<path d="M13.7949 27.1379L5.26921 22.1475C4.92399 21.911 4.65232 21.6172 4.45421 21.2659C4.2561 20.9147 4.15704 20.5398 4.15704 20.1411V10.1699C4.15704 9.77125 4.2561 9.39629 4.45421 9.04507C4.65232 8.69385 4.92399 8.4 5.26921 8.16353L13.8365 3.12186C14.2111 2.921 14.6006 2.82057 15.0052 2.82057C15.4099 2.82057 15.7959 2.921 16.1635 3.12186L24.7308 8.16353C25.076 8.4 25.3477 8.69385 25.5458 9.04507C25.7439 9.39629 25.843 9.77125 25.843 10.1699V20.1411C25.843 20.5398 25.7456 20.9147 25.5509 21.2659C25.3562 21.6172 25.0689 21.911 24.6891 22.1475L16.1026 27.1379C15.7189 27.3601 15.3303 27.4712 14.9366 27.4712C14.543 27.4712 14.1624 27.3601 13.7949 27.1379ZM0.632042 7.09944C0.447847 7.09944 0.296458 7.038 0.177875 6.91511C0.0592916 6.79225 0 6.64001 0 6.4584V2.30132C0 1.68326 0.230097 1.14414 0.690292 0.683945C1.15049 0.22375 1.68961 -0.00634766 2.30767 -0.00634766H6.46475C6.64636 -0.00634766 6.7986 0.0559434 6.92146 0.180527C7.04435 0.30511 7.10579 0.459485 7.10579 0.643651C7.10579 0.827846 7.04435 0.979236 6.92146 1.09782C6.7986 1.2164 6.64636 1.27569 6.46475 1.27569H2.30767C2.00853 1.27569 1.76281 1.37185 1.5705 1.56415C1.37819 1.75646 1.28204 2.00218 1.28204 2.30132V6.4584C1.28204 6.64001 1.21975 6.79225 1.09517 6.91511C0.970583 7.038 0.816209 7.09944 0.632042 7.09944ZM2.30767 29.9937C1.68961 29.9937 1.15049 29.7636 0.690292 29.3034C0.230097 28.8432 0 28.304 0 27.686V23.5289C0 23.3473 0.0622917 23.1951 0.186875 23.0722C0.311458 22.9493 0.465834 22.8879 0.65 22.8879C0.834195 22.8879 0.985583 22.9493 1.10417 23.0722C1.22275 23.1951 1.28204 23.3473 1.28204 23.5289V27.686C1.28204 27.9851 1.37819 28.2308 1.5705 28.4232C1.76281 28.6155 2.00853 28.7116 2.30767 28.7116H6.46475C6.64636 28.7116 6.7986 28.7739 6.92146 28.8985C7.04435 29.0231 7.10579 29.1774 7.10579 29.3616C7.10579 29.5458 7.04435 29.6972 6.92146 29.8158C6.7986 29.9344 6.64636 29.9937 6.46475 29.9937H2.30767ZM27.6923 29.9937H23.5352C23.3536 29.9937 23.2014 29.9314 23.0785 29.8068C22.9557 29.6822 22.8942 29.5278 22.8942 29.3437C22.8942 29.1595 22.9557 29.0081 23.0785 28.8895C23.2014 28.7709 23.3536 28.7116 23.5352 28.7116H27.6923C27.9915 28.7116 28.2372 28.6155 28.4295 28.4232C28.6218 28.2308 28.718 27.9851 28.718 27.686V23.5289C28.718 23.3473 28.7803 23.1951 28.9048 23.0722C29.0294 22.9493 29.1838 22.8879 29.368 22.8879C29.5522 22.8879 29.7035 22.9493 29.8221 23.0722C29.9407 23.1951 30 23.3473 30 23.5289V27.686C30 28.304 29.7699 28.8432 29.3097 29.3034C28.8495 29.7636 28.3104 29.9937 27.6923 29.9937ZM28.718 6.4584V2.30132C28.718 2.00218 28.6218 1.75646 28.4295 1.56415C28.2372 1.37185 27.9915 1.27569 27.6923 1.27569H23.5352C23.3536 1.27569 23.2014 1.2134 23.0785 1.08882C22.9557 0.964235 22.8942 0.809861 22.8942 0.625694C22.8942 0.4415 22.9557 0.29011 23.0785 0.171527C23.2014 0.0529433 23.3536 -0.00634766 23.5352 -0.00634766H27.6923C28.3104 -0.00634766 28.8495 0.22375 29.3097 0.683945C29.7699 1.14414 30 1.68326 30 2.30132V6.4584C30 6.64001 29.9377 6.79225 29.8131 6.91511C29.6885 7.038 29.5342 7.09944 29.35 7.09944C29.1658 7.09944 29.0144 7.038 28.8958 6.91511C28.7772 6.79225 28.718 6.64001 28.718 6.4584ZM6.05771 9.18594L5.44871 9.5834V10.4199L14.359 15.4744V25.9616L15 26.359L15.641 25.9616V15.4744L24.5609 10.4199V9.5834L23.9423 9.18594L15 14.3462L6.05771 9.18594Z" fill="#464646"/>
</svg>
