<svg width="34" height="34" viewBox="0 0 34 34" fill="none" xmlns="http://www.w3.org/2000/svg">
<path d="M1.61505 33.9932C1.26944 33.9932 0.969355 33.8677 0.7148 33.6166C0.460272 33.3655 0.333008 33.0621 0.333008 32.7064C0.333008 32.3506 0.459022 32.0472 0.711049 31.7961C0.963049 31.545 1.26759 31.4195 1.62467 31.4195H32.3843C32.7299 31.4195 33.03 31.5421 33.2845 31.7874C33.5391 32.0327 33.6663 32.3399 33.6663 32.7089C33.6663 33.0566 33.5403 33.3576 33.2883 33.6119C33.0363 33.8661 32.7318 33.9932 32.3747 33.9932H1.61505ZM5.33301 22.5387V20.795C5.33301 20.6494 5.35544 20.5055 5.4003 20.3634C5.44519 20.2213 5.52638 20.0915 5.64388 19.974L24.9228 0.727188C25.0659 0.584021 25.2208 0.48359 25.3875 0.425896C25.5542 0.368201 25.7155 0.339355 25.8715 0.339355C26.0275 0.339355 26.1797 0.368201 26.3282 0.425896C26.4767 0.48359 26.6193 0.584021 26.7561 0.727188L28.2689 2.20798C28.3907 2.34473 28.4874 2.49269 28.559 2.65186C28.6306 2.81105 28.6663 2.98426 28.6663 3.17148C28.6663 3.31759 28.6333 3.47348 28.5671 3.63915C28.501 3.80479 28.4016 3.9602 28.2689 4.1054L9.02213 23.3522C8.88324 23.4697 8.74667 23.5563 8.61242 23.6118C8.47818 23.6674 8.34444 23.6951 8.21122 23.6951H6.50047C6.1638 23.6951 5.88505 23.5805 5.66422 23.3511C5.44341 23.1217 5.33301 22.8509 5.33301 22.5387ZM25.2817 5.2304L27.3651 3.14706L25.8811 1.63102L23.7978 3.71436L25.2817 5.2304Z" fill="#464646"/>
</svg>
