<svg width="18" height="17" viewBox="0 0 18 17" fill="none" xmlns="http://www.w3.org/2000/svg">
<path d="M15.7873 16H7.82577C7.68411 16 7.56536 15.952 7.46952 15.856C7.37369 15.76 7.32577 15.6411 7.32577 15.4992C7.32577 15.3574 7.37369 15.2387 7.46952 15.1432C7.56536 15.0477 7.68411 15 7.82577 15H15.7873C15.9413 15 16.0824 14.9359 16.2105 14.8077C16.3387 14.6796 16.4028 14.5385 16.4028 14.3845V1.6155C16.4028 1.4615 16.3387 1.32042 16.2105 1.19225C16.0824 1.06408 15.9413 1 15.7873 1H3.01827C2.86427 1 2.72319 1.06408 2.59502 1.19225C2.46686 1.32042 2.40277 1.4615 2.40277 1.6155V4.923C2.40277 5.06467 2.35477 5.18342 2.25877 5.27925C2.16277 5.37508 2.04386 5.423 1.90202 5.423C1.76019 5.423 1.64152 5.37508 1.54602 5.27925C1.45052 5.18342 1.40277 5.06467 1.40277 4.923V1.6155C1.40277 1.15517 1.55694 0.770833 1.86527 0.4625C2.17361 0.154167 2.55794 0 3.01827 0H15.7873C16.2476 0 16.6319 0.154167 16.9403 0.4625C17.2486 0.770833 17.4028 1.15517 17.4028 1.6155V14.3845C17.4028 14.8448 17.2486 15.2292 16.9403 15.5375C16.6319 15.8458 16.2476 16 15.7873 16ZM4.62402 17C3.44586 17 2.44294 16.5881 1.61527 15.7643C0.787773 14.9403 0.374023 13.9419 0.374023 12.7692C0.374023 11.8639 0.62944 11.0539 1.14027 10.3393C1.65111 9.62458 2.30652 9.11408 3.10652 8.80775H0.902773C0.761107 8.80775 0.642357 8.75975 0.546523 8.66375C0.45069 8.56775 0.402773 8.44883 0.402773 8.307C0.402773 8.16517 0.45069 8.0465 0.546523 7.951C0.642357 7.8555 0.761107 7.80775 0.902773 7.80775H4.13352C4.36236 7.80775 4.55419 7.88517 4.70902 8.04C4.86386 8.19467 4.94127 8.3865 4.94127 8.6155V11.8463C4.94127 11.9879 4.89327 12.1067 4.79727 12.2025C4.70127 12.2983 4.58236 12.3463 4.44052 12.3463C4.29869 12.3463 4.18002 12.2983 4.08452 12.2025C3.98902 12.1067 3.94127 11.9879 3.94127 11.8463V9.575C3.19627 9.73317 2.58211 10.1088 2.09877 10.7018C1.61561 11.2948 1.37402 11.9767 1.37402 12.7475C1.37402 13.6568 1.68969 14.4262 2.32102 15.0557C2.95252 15.6853 3.72019 16 4.62402 16C4.76569 16 4.88444 16.048 4.98027 16.144C5.07611 16.24 5.12402 16.3589 5.12402 16.5008C5.12402 16.6426 5.07611 16.7612 4.98027 16.8568C4.88444 16.9523 4.76569 17 4.62402 17ZM7.82577 12.5H10.4028C10.5444 12.5 10.6632 12.452 10.759 12.356C10.8549 12.26 10.9028 12.1411 10.9028 11.9993C10.9028 11.8574 10.8549 11.7388 10.759 11.6433C10.6632 11.5478 10.5444 11.5 10.4028 11.5H7.82577C7.68411 11.5 7.56536 11.548 7.46952 11.644C7.37369 11.74 7.32577 11.8589 7.32577 12.0008C7.32577 12.1426 7.37369 12.2612 7.46952 12.3567C7.56536 12.4522 7.68411 12.5 7.82577 12.5ZM7.82577 8.5H13.4028C13.5444 8.5 13.6632 8.452 13.759 8.356C13.8549 8.26 13.9028 8.14108 13.9028 7.99925C13.9028 7.85742 13.8549 7.73875 13.759 7.64325C13.6632 7.54775 13.5444 7.5 13.4028 7.5H7.82577C7.68411 7.5 7.56536 7.548 7.46952 7.644C7.37369 7.74 7.32577 7.85892 7.32577 8.00075C7.32577 8.14258 7.37369 8.26125 7.46952 8.35675C7.56536 8.45225 7.68411 8.5 7.82577 8.5ZM5.40277 4.5H13.4028C13.5444 4.5 13.6632 4.452 13.759 4.356C13.8549 4.26 13.9028 4.14108 13.9028 3.99925C13.9028 3.85742 13.8549 3.73875 13.759 3.64325C13.6632 3.54775 13.5444 3.5 13.4028 3.5H5.40277C5.26111 3.5 5.14236 3.548 5.04652 3.644C4.95069 3.74 4.90277 3.85892 4.90277 4.00075C4.90277 4.14258 4.95069 4.26125 5.04652 4.35675C5.14236 4.45225 5.26111 4.5 5.40277 4.5Z" fill="#1C1B1F"/>
</svg>
