<svg width="30" height="24" viewBox="0 0 30 24" fill="none" xmlns="http://www.w3.org/2000/svg">
<path d="M0.512695 9.74002V2.56373C0.512695 2.06662 0.67582 1.65495 1.00207 1.32873C1.32829 1.00248 1.73996 0.839355 2.23707 0.839355H7.73386C8.20961 0.839355 8.61594 1.00781 8.95286 1.34473C9.28978 1.68165 9.45824 2.08798 9.45824 2.56373V9.74002C9.45824 10.2067 9.28978 10.6054 8.95286 10.9362C8.61594 11.2669 8.20961 11.4323 7.73386 11.4323H2.23707C1.76132 11.4323 1.35499 11.2669 1.01807 10.9362C0.681154 10.6054 0.512695 10.2067 0.512695 9.74002ZM12.2723 11.4323C11.7966 11.4323 11.3902 11.2669 11.0534 10.9362C10.7164 10.6054 10.548 10.2067 10.548 9.74002V2.56373C10.548 2.08798 10.7164 1.68165 11.0534 1.34473C11.3902 1.00781 11.7966 0.839355 12.2723 0.839355H17.7275C18.2032 0.839355 18.6096 1.00781 18.9464 1.34473C19.2834 1.68165 19.4518 2.08798 19.4518 2.56373V9.74002C19.4518 10.2067 19.2834 10.6054 18.9464 10.9362C18.6096 11.2669 18.2032 11.4323 17.7275 11.4323H12.2723ZM22.2659 11.4323C21.7902 11.4323 21.3839 11.2669 21.0469 10.9362C20.71 10.6054 20.5416 10.2067 20.5416 9.74002V2.56373C20.5416 2.08798 20.71 1.68165 21.0469 1.34473C21.3839 1.00781 21.7902 0.839355 22.2659 0.839355H27.7627C28.2598 0.839355 28.6715 1.00248 28.9977 1.32873C29.324 1.65495 29.4871 2.06662 29.4871 2.56373V9.74002C29.4871 10.2067 29.3187 10.6054 28.9817 10.9362C28.6448 11.2669 28.2385 11.4323 27.7627 11.4323H22.2659ZM7.73386 23.1471H2.23707C1.73996 23.1471 1.32829 22.984 1.00207 22.6577C0.67582 22.3315 0.512695 21.9198 0.512695 21.4227V14.2464C0.512695 13.7707 0.681154 13.3644 1.01807 13.0274C1.35499 12.6905 1.76132 12.5221 2.23707 12.5221H7.73386C8.20961 12.5221 8.61594 12.6905 8.95286 13.0274C9.28978 13.3644 9.45824 13.7707 9.45824 14.2464V21.4227C9.45824 21.8985 9.28978 22.3048 8.95286 22.6417C8.61594 22.9786 8.20961 23.1471 7.73386 23.1471ZM12.2723 23.1471C11.7966 23.1471 11.3902 22.9786 11.0534 22.6417C10.7164 22.3048 10.548 21.8985 10.548 21.4227V14.2464C10.548 13.7707 10.7164 13.3644 11.0534 13.0274C11.3902 12.6905 11.7966 12.5221 12.2723 12.5221H17.7275C18.2032 12.5221 18.6096 12.6905 18.9464 13.0274C19.2834 13.3644 19.4518 13.7707 19.4518 14.2464V21.4227C19.4518 21.8985 19.2834 22.3048 18.9464 22.6417C18.6096 22.9786 18.2032 23.1471 17.7275 23.1471H12.2723ZM22.2659 23.1471C21.7902 23.1471 21.3839 22.9786 21.0469 22.6417C20.71 22.3048 20.5416 21.8985 20.5416 21.4227V14.2464C20.5416 13.7707 20.71 13.3644 21.0469 13.0274C21.3839 12.6905 21.7902 12.5221 22.2659 12.5221H27.7627C28.2385 12.5221 28.6448 12.6905 28.9817 13.0274C29.3187 13.3644 29.4871 13.7707 29.4871 14.2464V21.4227C29.4871 21.9198 29.324 22.3315 28.9977 22.6577C28.6715 22.984 28.2598 23.1471 27.7627 23.1471H22.2659Z" fill="#464646"/>
</svg>
