<svg width="20" height="20" viewBox="0 0 20 20" fill="none" xmlns="http://www.w3.org/2000/svg">
<path d="M1.40234 12.5C1.26901 12.5 1.15234 12.45 1.05234 12.35C0.952344 12.25 0.902344 12.1333 0.902344 12C0.902344 11.8667 0.952344 11.75 1.05234 11.65C1.15234 11.55 1.26901 11.5 1.40234 11.5C1.53568 11.5 1.65234 11.55 1.75234 11.65C1.85234 11.75 1.90234 11.8667 1.90234 12C1.90234 12.1333 1.85234 12.25 1.75234 12.35C1.65234 12.45 1.53568 12.5 1.40234 12.5ZM1.40234 8.5C1.26901 8.5 1.15234 8.45 1.05234 8.35C0.952344 8.25 0.902344 8.13333 0.902344 8C0.902344 7.86667 0.952344 7.75 1.05234 7.65C1.15234 7.55 1.26901 7.5 1.40234 7.5C1.53568 7.5 1.65234 7.55 1.75234 7.65C1.85234 7.75 1.90234 7.86667 1.90234 8C1.90234 8.13333 1.85234 8.25 1.75234 8.35C1.65234 8.45 1.53568 8.5 1.40234 8.5ZM4.40234 16.8463C4.16268 16.8463 3.96168 16.7652 3.79934 16.603C3.63718 16.4407 3.55609 16.2397 3.55609 16C3.55609 15.7603 3.63718 15.5593 3.79934 15.397C3.96168 15.2348 4.16268 15.1538 4.40234 15.1538C4.64201 15.1538 4.84301 15.2348 5.00534 15.397C5.16751 15.5593 5.24859 15.7603 5.24859 16C5.24859 16.2397 5.16751 16.4407 5.00534 16.603C4.84301 16.7652 4.64201 16.8463 4.40234 16.8463ZM4.40234 12.8463C4.16268 12.8463 3.96168 12.7652 3.79934 12.603C3.63718 12.4407 3.55609 12.2397 3.55609 12C3.55609 11.7603 3.63718 11.5593 3.79934 11.397C3.96168 11.2348 4.16268 11.1538 4.40234 11.1538C4.64201 11.1538 4.84301 11.2348 5.00534 11.397C5.16751 11.5593 5.24859 11.7603 5.24859 12C5.24859 12.2397 5.16751 12.4407 5.00534 12.603C4.84301 12.7652 4.64201 12.8463 4.40234 12.8463ZM4.40234 8.84625C4.16268 8.84625 3.96168 8.76517 3.79934 8.603C3.63718 8.44067 3.55609 8.23967 3.55609 8C3.55609 7.76033 3.63718 7.55933 3.79934 7.397C3.96168 7.23483 4.16268 7.15375 4.40234 7.15375C4.64201 7.15375 4.84301 7.23483 5.00534 7.397C5.16751 7.55933 5.24859 7.76033 5.24859 8C5.24859 8.23967 5.16751 8.44067 5.00534 8.603C4.84301 8.76517 4.64201 8.84625 4.40234 8.84625ZM4.40234 4.84625C4.16268 4.84625 3.96168 4.76517 3.79934 4.603C3.63718 4.44067 3.55609 4.23967 3.55609 4C3.55609 3.76033 3.63718 3.55933 3.79934 3.397C3.96168 3.23483 4.16268 3.15375 4.40234 3.15375C4.64201 3.15375 4.84301 3.23483 5.00534 3.397C5.16751 3.55933 5.24859 3.76033 5.24859 4C5.24859 4.23967 5.16751 4.44067 5.00534 4.603C4.84301 4.76517 4.64201 4.84625 4.40234 4.84625ZM8.40684 13.1923C8.07684 13.1923 7.79493 13.0767 7.56109 12.8457C7.32709 12.6149 7.21009 12.3345 7.21009 12.0045C7.21009 11.6745 7.32559 11.3926 7.55659 11.1588C7.78743 10.9248 8.06784 10.8077 8.39784 10.8077C8.72784 10.8077 9.00976 10.9233 9.24359 11.1543C9.47759 11.3851 9.59459 11.6655 9.59459 11.9955C9.59459 12.3255 9.47909 12.6074 9.24809 12.8413C9.01726 13.0753 8.73684 13.1923 8.40684 13.1923ZM8.40684 9.19225C8.07684 9.19225 7.79493 9.07675 7.56109 8.84575C7.32709 8.61492 7.21009 8.3345 7.21009 8.0045C7.21009 7.6745 7.32559 7.39258 7.55659 7.15875C7.78743 6.92475 8.06784 6.80775 8.39784 6.80775C8.72784 6.80775 9.00976 6.92325 9.24359 7.15425C9.47759 7.38508 9.59459 7.6655 9.59459 7.9955C9.59459 8.3255 9.47909 8.60742 9.24809 8.84125C9.01726 9.07525 8.73684 9.19225 8.40684 9.19225ZM8.40234 16.8463C8.16268 16.8463 7.96168 16.7652 7.79934 16.603C7.63718 16.4407 7.55609 16.2397 7.55609 16C7.55609 15.7603 7.63718 15.5593 7.79934 15.397C7.96168 15.2348 8.16268 15.1538 8.40234 15.1538C8.64201 15.1538 8.84301 15.2348 9.00534 15.397C9.16751 15.5593 9.24859 15.7603 9.24859 16C9.24859 16.2397 9.16751 16.4407 9.00534 16.603C8.84301 16.7652 8.64201 16.8463 8.40234 16.8463ZM8.40234 4.84625C8.16268 4.84625 7.96168 4.76517 7.79934 4.603C7.63718 4.44067 7.55609 4.23967 7.55609 4C7.55609 3.76033 7.63718 3.55933 7.79934 3.397C7.96168 3.23483 8.16268 3.15375 8.40234 3.15375C8.64201 3.15375 8.84301 3.23483 9.00534 3.397C9.16751 3.55933 9.24859 3.76033 9.24859 4C9.24859 4.23967 9.16751 4.44067 9.00534 4.603C8.84301 4.76517 8.64201 4.84625 8.40234 4.84625ZM8.40234 19.5C8.26901 19.5 8.15234 19.45 8.05234 19.35C7.95234 19.25 7.90234 19.1333 7.90234 19C7.90234 18.8667 7.95234 18.75 8.05234 18.65C8.15234 18.55 8.26901 18.5 8.40234 18.5C8.53568 18.5 8.65234 18.55 8.75234 18.65C8.85234 18.75 8.90234 18.8667 8.90234 19C8.90234 19.1333 8.85234 19.25 8.75234 19.35C8.65234 19.45 8.53568 19.5 8.40234 19.5ZM8.40234 1.5C8.26901 1.5 8.15234 1.45 8.05234 1.35C7.95234 1.25 7.90234 1.13333 7.90234 1C7.90234 0.866667 7.95234 0.75 8.05234 0.65C8.15234 0.55 8.26901 0.5 8.40234 0.5C8.53568 0.5 8.65234 0.55 8.75234 0.65C8.85234 0.75 8.90234 0.866667 8.90234 1C8.90234 1.13333 8.85234 1.25 8.75234 1.35C8.65234 1.45 8.53568 1.5 8.40234 1.5ZM12.4068 13.1923C12.0768 13.1923 11.7949 13.0767 11.5611 12.8457C11.3271 12.6149 11.2101 12.3345 11.2101 12.0045C11.2101 11.6745 11.3256 11.3926 11.5566 11.1588C11.7874 10.9248 12.0678 10.8077 12.3978 10.8077C12.7278 10.8077 13.0098 10.9233 13.2436 11.1543C13.4776 11.3851 13.5946 11.6655 13.5946 11.9955C13.5946 12.3255 13.4791 12.6074 13.2481 12.8413C13.0173 13.0753 12.7368 13.1923 12.4068 13.1923ZM12.4068 9.19225C12.0768 9.19225 11.7949 9.07675 11.5611 8.84575C11.3271 8.61492 11.2101 8.3345 11.2101 8.0045C11.2101 7.6745 11.3256 7.39258 11.5566 7.15875C11.7874 6.92475 12.0678 6.80775 12.3978 6.80775C12.7278 6.80775 13.0098 6.92325 13.2436 7.15425C13.4776 7.38508 13.5946 7.6655 13.5946 7.9955C13.5946 8.3255 13.4791 8.60742 13.2481 8.84125C13.0173 9.07525 12.7368 9.19225 12.4068 9.19225ZM12.4023 16.8463C12.1627 16.8463 11.9617 16.7652 11.7993 16.603C11.6372 16.4407 11.5561 16.2397 11.5561 16C11.5561 15.7603 11.6372 15.5593 11.7993 15.397C11.9617 15.2348 12.1627 15.1538 12.4023 15.1538C12.642 15.1538 12.843 15.2348 13.0053 15.397C13.1675 15.5593 13.2486 15.7603 13.2486 16C13.2486 16.2397 13.1675 16.4407 13.0053 16.603C12.843 16.7652 12.642 16.8463 12.4023 16.8463ZM12.4023 4.84625C12.1627 4.84625 11.9617 4.76517 11.7993 4.603C11.6372 4.44067 11.5561 4.23967 11.5561 4C11.5561 3.76033 11.6372 3.55933 11.7993 3.397C11.9617 3.23483 12.1627 3.15375 12.4023 3.15375C12.642 3.15375 12.843 3.23483 13.0053 3.397C13.1675 3.55933 13.2486 3.76033 13.2486 4C13.2486 4.23967 13.1675 4.44067 13.0053 4.603C12.843 4.76517 12.642 4.84625 12.4023 4.84625ZM12.4023 19.5C12.269 19.5 12.1523 19.45 12.0523 19.35C11.9523 19.25 11.9023 19.1333 11.9023 19C11.9023 18.8667 11.9523 18.75 12.0523 18.65C12.1523 18.55 12.269 18.5 12.4023 18.5C12.5357 18.5 12.6523 18.55 12.7523 18.65C12.8523 18.75 12.9023 18.8667 12.9023 19C12.9023 19.1333 12.8523 19.25 12.7523 19.35C12.6523 19.45 12.5357 19.5 12.4023 19.5ZM12.4023 1.5C12.269 1.5 12.1523 1.45 12.0523 1.35C11.9523 1.25 11.9023 1.13333 11.9023 1C11.9023 0.866667 11.9523 0.75 12.0523 0.65C12.1523 0.55 12.269 0.5 12.4023 0.5C12.5357 0.5 12.6523 0.55 12.7523 0.65C12.8523 0.75 12.9023 0.866667 12.9023 1C12.9023 1.13333 12.8523 1.25 12.7523 1.35C12.6523 1.45 12.5357 1.5 12.4023 1.5ZM16.4023 16.8463C16.1627 16.8463 15.9617 16.7652 15.7993 16.603C15.6372 16.4407 15.5561 16.2397 15.5561 16C15.5561 15.7603 15.6372 15.5593 15.7993 15.397C15.9617 15.2348 16.1627 15.1538 16.4023 15.1538C16.642 15.1538 16.843 15.2348 17.0053 15.397C17.1675 15.5593 17.2486 15.7603 17.2486 16C17.2486 16.2397 17.1675 16.4407 17.0053 16.603C16.843 16.7652 16.642 16.8463 16.4023 16.8463ZM16.4023 12.8463C16.1627 12.8463 15.9617 12.7652 15.7993 12.603C15.6372 12.4407 15.5561 12.2397 15.5561 12C15.5561 11.7603 15.6372 11.5593 15.7993 11.397C15.9617 11.2348 16.1627 11.1538 16.4023 11.1538C16.642 11.1538 16.843 11.2348 17.0053 11.397C17.1675 11.5593 17.2486 11.7603 17.2486 12C17.2486 12.2397 17.1675 12.4407 17.0053 12.603C16.843 12.7652 16.642 12.8463 16.4023 12.8463ZM16.4023 8.84625C16.1627 8.84625 15.9617 8.76517 15.7993 8.603C15.6372 8.44067 15.5561 8.23967 15.5561 8C15.5561 7.76033 15.6372 7.55933 15.7993 7.397C15.9617 7.23483 16.1627 7.15375 16.4023 7.15375C16.642 7.15375 16.843 7.23483 17.0053 7.397C17.1675 7.55933 17.2486 7.76033 17.2486 8C17.2486 8.23967 17.1675 8.44067 17.0053 8.603C16.843 8.76517 16.642 8.84625 16.4023 8.84625ZM16.4023 4.84625C16.1627 4.84625 15.9617 4.76517 15.7993 4.603C15.6372 4.44067 15.5561 4.23967 15.5561 4C15.5561 3.76033 15.6372 3.55933 15.7993 3.397C15.9617 3.23483 16.1627 3.15375 16.4023 3.15375C16.642 3.15375 16.843 3.23483 17.0053 3.397C17.1675 3.55933 17.2486 3.76033 17.2486 4C17.2486 4.23967 17.1675 4.44067 17.0053 4.603C16.843 4.76517 16.642 4.84625 16.4023 4.84625ZM19.4023 12.5C19.269 12.5 19.1523 12.45 19.0523 12.35C18.9523 12.25 18.9023 12.1333 18.9023 12C18.9023 11.8667 18.9523 11.75 19.0523 11.65C19.1523 11.55 19.269 11.5 19.4023 11.5C19.5357 11.5 19.6523 11.55 19.7523 11.65C19.8523 11.75 19.9023 11.8667 19.9023 12C19.9023 12.1333 19.8523 12.25 19.7523 12.35C19.6523 12.45 19.5357 12.5 19.4023 12.5ZM19.4023 8.5C19.269 8.5 19.1523 8.45 19.0523 8.35C18.9523 8.25 18.9023 8.13333 18.9023 8C18.9023 7.86667 18.9523 7.75 19.0523 7.65C19.1523 7.55 19.269 7.5 19.4023 7.5C19.5357 7.5 19.6523 7.55 19.7523 7.65C19.8523 7.75 19.9023 7.86667 19.9023 8C19.9023 8.13333 19.8523 8.25 19.7523 8.35C19.6523 8.45 19.5357 8.5 19.4023 8.5Z" fill="#1C1B1F"/>
</svg>
