<svg width="35" height="24" viewBox="0 0 35 24" fill="none" xmlns="http://www.w3.org/2000/svg">
<path d="M14.7158 19.1859L23.047 10.8761L22.0705 9.89956L14.7404 17.2297L10.9669 13.4776L9.98715 14.4572L14.7158 19.1859ZM8.21152 23.6666C6.15952 23.6666 4.41681 22.948 2.9834 21.5107C1.55001 20.0733 0.833313 18.3287 0.833313 16.2767C0.833313 14.3664 1.49962 12.6787 2.83223 11.2136C4.16487 9.74856 5.80341 8.97933 7.74786 8.90597C8.07191 6.443 9.1613 4.39954 11.016 2.7756C12.8707 1.15168 15.0434 0.339722 17.5342 0.339722C20.2642 0.339722 22.5807 1.3114 24.4834 3.25476C26.3862 5.19815 27.3376 7.54626 27.3376 10.2991V12.2906H28.3632C29.9865 12.2564 31.3595 12.7861 32.4824 13.8798C33.6052 14.9734 34.1666 16.3362 34.1666 17.9679C34.1666 19.5484 33.612 20.8933 32.5027 22.0026C31.3933 23.112 30.0484 23.6666 28.4679 23.6666H8.21152ZM8.21152 22.2564H28.4679C29.6617 22.2564 30.6748 21.8401 31.5075 21.0075C32.3401 20.1748 32.7564 19.1617 32.7564 17.9679C32.7564 16.7884 32.3401 15.7824 31.5075 14.9498C30.6748 14.1172 29.6617 13.7008 28.4679 13.7008H25.9273V10.2991C25.9273 7.93088 25.1059 5.91396 23.4631 4.24835C21.8203 2.58276 19.8212 1.74997 17.4658 1.74997C15.1246 1.74997 13.128 2.58276 11.4759 4.24835C9.82388 5.91396 8.99786 7.93088 8.99786 10.2991H8.1709C6.52845 10.2991 5.12995 10.881 3.9754 12.0448C2.82084 13.2087 2.24356 14.6232 2.24356 16.2884C2.24356 17.9352 2.82654 19.3415 3.99248 20.5075C5.15845 21.6734 6.5648 22.2564 8.21152 22.2564Z" fill="#393939"/>
</svg>
