<svg width="17" height="18" viewBox="0 0 17 18" fill="none" xmlns="http://www.w3.org/2000/svg">
<path d="M7.90234 16.7149V9.28791L1.40234 5.52441V12.6052C1.40234 12.7078 1.42801 12.804 1.47934 12.8937C1.53051 12.9835 1.60743 13.0604 1.71009 13.1244L7.90234 16.7149ZM8.90234 16.7149L15.0946 13.1244C15.1973 13.0604 15.2742 12.9835 15.3253 12.8937C15.3767 12.804 15.4023 12.7078 15.4023 12.6052V5.52441L8.90234 9.28791V16.7149ZM8.40234 8.42841L14.8273 4.71491L8.71009 1.17441C8.60743 1.11041 8.50484 1.07841 8.40234 1.07841C8.29984 1.07841 8.19726 1.11041 8.09459 1.17441L1.97734 4.71491L8.40234 8.42841ZM1.21009 14.0092C0.957427 13.8643 0.759677 13.6675 0.616844 13.4187C0.473844 13.17 0.402344 12.9007 0.402344 12.6109V5.39191C0.402344 5.10207 0.473844 4.83282 0.616844 4.58416C0.759677 4.33532 0.957427 4.13849 1.21009 3.99366L7.59459 0.314906C7.84726 0.170073 8.11651 0.0976562 8.40234 0.0976562C8.68818 0.0976562 8.95743 0.170073 9.21009 0.314906L15.5946 3.99366C15.8473 4.13849 16.045 4.33532 16.1878 4.58416C16.3308 4.83282 16.4023 5.10207 16.4023 5.39191V12.6109C16.4023 12.9007 16.3308 13.17 16.1878 13.4187C16.045 13.6675 15.8473 13.8643 15.5946 14.0092L9.21009 17.6879C8.95743 17.8327 8.68818 17.9052 8.40234 17.9052C8.11651 17.9052 7.84726 17.8327 7.59459 17.6879L1.21009 14.0092Z" fill="#1C1B1F"/>
</svg>
