<svg width="30" height="30" viewBox="0 0 30 30" fill="none" xmlns="http://www.w3.org/2000/svg">
<path d="M8.25339 9.16669L13.0322 1.34294C13.1498 1.16988 13.2945 1.04008 13.4665 0.953524C13.6385 0.866997 13.8196 0.82373 14.0098 0.82373C14.2 0.82373 14.3864 0.866997 14.5691 0.953524C14.7518 1.04008 14.9019 1.16988 15.0194 1.34294L19.7983 9.16669C19.9158 9.35686 19.973 9.56038 19.9698 9.77727C19.9665 9.99416 19.9201 10.1891 19.8303 10.3622C19.7192 10.5353 19.5816 10.672 19.4175 10.7725C19.2534 10.8729 19.0513 10.9231 18.8111 10.9231H9.20852C8.9841 10.9231 8.78239 10.8698 8.60339 10.7632C8.42439 10.6567 8.29703 10.523 8.22131 10.3622C8.13159 10.196 8.08512 10.0054 8.08189 9.79044C8.0787 9.57547 8.13587 9.36755 8.25339 9.16669ZM23.2962 29.3782C21.5764 29.3782 20.1292 28.7881 18.9545 27.6077C17.7798 26.4274 17.1925 24.988 17.1925 23.2896C17.1925 21.5698 17.7773 20.1226 18.947 18.9479C20.1166 17.7732 21.5613 17.1859 23.2811 17.1859C24.9795 17.1859 26.4214 17.7707 27.6068 18.9404C28.7921 20.11 29.3848 21.5547 29.3848 23.2745C29.3848 24.9729 28.7946 26.4148 27.6143 27.6002C26.434 28.7856 24.9946 29.3782 23.2962 29.3782ZM0.282227 27.2778V19.1239C0.282227 18.8175 0.392768 18.5498 0.613852 18.3209C0.834963 18.092 1.10939 17.9776 1.43714 17.9776H9.59106C9.91884 17.9776 10.1918 18.0935 10.4101 18.3252C10.6283 18.557 10.7374 18.8261 10.7374 19.1325V27.2864C10.7374 27.6142 10.6268 27.8872 10.4057 28.1054C10.1846 28.3236 9.91021 28.4327 9.58244 28.4327H1.42852C1.10077 28.4327 0.827782 28.3222 0.60956 28.1011C0.391338 27.88 0.282227 27.6056 0.282227 27.2778Z" fill="#464646"/>
</svg>
