<svg width="26" height="27" viewBox="0 0 26 27" fill="none" xmlns="http://www.w3.org/2000/svg">
<path d="M2.75 26.1923C1.98292 26.1923 1.34243 25.9354 0.828542 25.4215C0.314653 24.9076 0.0577087 24.2671 0.0577087 23.5C0.0577087 22.7329 0.314653 22.0925 0.828542 21.5786C1.34243 21.0647 1.98292 20.8077 2.75 20.8077C3.51708 20.8077 4.15757 21.0647 4.67146 21.5786C5.18535 22.0925 5.44229 22.7329 5.44229 23.5C5.44229 24.2671 5.18535 24.9076 4.67146 25.4215C4.15757 25.9354 3.51708 26.1923 2.75 26.1923ZM16.0833 26.1923C15.3162 26.1923 14.6758 25.9354 14.1619 25.4215C13.648 24.9076 13.391 24.2671 13.391 23.5C13.391 22.7329 13.648 22.0925 14.1619 21.5786C14.6758 21.0647 15.3162 20.8077 16.0833 20.8077C16.8504 20.8077 17.4909 21.0647 18.0048 21.5786C18.5187 22.0925 18.7756 22.7329 18.7756 23.5C18.7756 24.2671 18.5187 24.9076 18.0048 25.4215C17.4909 25.9354 16.8504 26.1923 16.0833 26.1923ZM9.41667 19.5257C8.64958 19.5257 8.0091 19.2687 7.49521 18.7548C6.98132 18.2409 6.72438 17.6004 6.72438 16.8334C6.72438 16.0663 6.98132 15.4258 7.49521 14.9119C8.0091 14.398 8.64958 14.1411 9.41667 14.1411C10.1838 14.1411 10.8242 14.398 11.3381 14.9119C11.852 15.4258 12.109 16.0663 12.109 16.8334C12.109 17.6004 11.852 18.2409 11.3381 18.7548C10.8242 19.2687 10.1838 19.5257 9.41667 19.5257ZM22.75 19.5257C21.9829 19.5257 21.3424 19.2687 20.8285 18.7548C20.3147 18.2409 20.0577 17.6004 20.0577 16.8334C20.0577 16.0663 20.3147 15.4258 20.8285 14.9119C21.3424 14.398 21.9829 14.1411 22.75 14.1411C23.5171 14.1411 24.1576 14.398 24.6715 14.9119C25.1853 15.4258 25.4423 16.0663 25.4423 16.8334C25.4423 17.6004 25.1853 18.2409 24.6715 18.7548C24.1576 19.2687 23.5171 19.5257 22.75 19.5257ZM2.75 12.859C1.98292 12.859 1.34243 12.602 0.828542 12.0882C0.314653 11.5743 0.0577087 10.9338 0.0577087 10.1667C0.0577087 9.39961 0.314653 8.75913 0.828542 8.24524C1.34243 7.73135 1.98292 7.47441 2.75 7.47441C3.51708 7.47441 4.15757 7.73135 4.67146 8.24524C5.18535 8.75913 5.44229 9.39961 5.44229 10.1667C5.44229 10.9338 5.18535 11.5743 4.67146 12.0882C4.15757 12.602 3.51708 12.859 2.75 12.859ZM16.0833 12.859C15.3162 12.859 14.6758 12.602 14.1619 12.0882C13.648 11.5743 13.391 10.9338 13.391 10.1667C13.391 9.39961 13.648 8.75913 14.1619 8.24524C14.6758 7.73135 15.3162 7.47441 16.0833 7.47441C16.8504 7.47441 17.4909 7.73135 18.0048 8.24524C18.5187 8.75913 18.7756 9.39961 18.7756 10.1667C18.7756 10.9338 18.5187 11.5743 18.0048 12.0882C17.4909 12.602 16.8504 12.859 16.0833 12.859ZM9.41667 6.19232C8.64958 6.19232 8.0091 5.93538 7.49521 5.42149C6.98132 4.9076 6.72438 4.26711 6.72438 3.50003C6.72438 2.73295 6.98132 2.09246 7.49521 1.57857C8.0091 1.06468 8.64958 0.807739 9.41667 0.807739C10.1838 0.807739 10.8242 1.06468 11.3381 1.57857C11.852 2.09246 12.109 2.73295 12.109 3.50003C12.109 4.26711 11.852 4.9076 11.3381 5.42149C10.8242 5.93538 10.1838 6.19232 9.41667 6.19232ZM22.75 6.19232C21.9829 6.19232 21.3424 5.93538 20.8285 5.42149C20.3147 4.9076 20.0577 4.26711 20.0577 3.50003C20.0577 2.73295 20.3147 2.09246 20.8285 1.57857C21.3424 1.06468 21.9829 0.807739 22.75 0.807739C23.5171 0.807739 24.1576 1.06468 24.6715 1.57857C25.1853 2.09246 25.4423 2.73295 25.4423 3.50003C25.4423 4.26711 25.1853 4.9076 24.6715 5.42149C24.1576 5.93538 23.5171 6.19232 22.75 6.19232Z" fill="#1C1B1F"/>
</svg>
