<svg width="27" height="31" viewBox="0 0 27 31" fill="none" xmlns="http://www.w3.org/2000/svg">
<path d="M9.50002 21.7885L10.5107 20.7928L6.74573 17L10.5107 13.2137L9.50002 12.218L4.71798 17.0033L9.50002 21.7885ZM17.5 21.7885L22.2885 17L17.5064 12.218L16.4957 13.2137L20.2821 17L16.4894 20.7928L17.5 21.7885ZM2.60256 30.3334C1.9384 30.3334 1.36637 30.0934 0.886478 29.6136C0.406617 29.1337 0.166687 28.5617 0.166687 27.8975V6.10258C0.166687 5.43842 0.406617 4.86639 0.886478 4.3865C1.36637 3.90664 1.9384 3.66671 2.60256 3.66671H10.9081C10.6938 2.83479 10.8513 2.07125 11.3809 1.37608C11.9105 0.680945 12.6168 0.333374 13.5 0.333374C14.4046 0.333374 15.1216 0.680945 15.6512 1.37608C16.1807 2.07125 16.3276 2.83479 16.0919 3.66671H24.3975C25.0616 3.66671 25.6337 3.90664 26.1136 4.3865C26.5934 4.86639 26.8334 5.43842 26.8334 6.10258V27.8975C26.8334 28.5617 26.5934 29.1337 26.1136 29.6136C25.6337 30.0934 25.0616 30.3334 24.3975 30.3334H2.60256ZM2.60256 28.9231H24.3975C24.6539 28.9231 24.8889 28.8163 25.1026 28.6026C25.3163 28.389 25.4231 28.1539 25.4231 27.8975V6.10258C25.4231 5.84617 25.3163 5.61112 25.1026 5.39746C24.8889 5.18379 24.6539 5.07696 24.3975 5.07696H2.60256C2.34615 5.07696 2.1111 5.18379 1.89744 5.39746C1.68377 5.61112 1.57694 5.84617 1.57694 6.10258V27.8975C1.57694 28.1539 1.68377 28.389 1.89744 28.6026C2.1111 28.8163 2.34615 28.9231 2.60256 28.9231ZM13.4956 4.31629C13.858 4.31629 14.1701 4.1904 14.432 3.93862C14.6939 3.68682 14.8248 3.37467 14.8248 3.00217C14.8248 2.62967 14.6939 2.31753 14.432 2.06575C14.1701 1.81397 13.858 1.68808 13.4956 1.68808C13.1331 1.68808 12.826 1.81397 12.5743 2.06575C12.3225 2.31753 12.1966 2.62967 12.1966 3.00217C12.1966 3.37467 12.3225 3.68682 12.5743 3.93862C12.826 4.1904 13.1331 4.31629 13.4956 4.31629Z" fill="#393939"/>
</svg>
