<svg width="19" height="20" viewBox="0 0 19 20" fill="none" xmlns="http://www.w3.org/2000/svg">
<path fill-rule="evenodd" clip-rule="evenodd" d="M0.849609 10.0122C0.849609 6.41707 0.849609 4.6195 1.7063 3.32476C2.08886 2.7466 2.584 2.25145 3.16216 1.8689C4.4569 1.01221 6.25447 1.01221 9.84961 1.01221C13.4447 1.01221 15.2423 1.01221 16.5371 1.8689C17.1152 2.25145 17.6104 2.7466 17.9929 3.32476C18.8496 4.6195 18.8496 6.41707 18.8496 10.0122C18.8496 13.6073 18.8496 15.4049 17.9929 16.6997C17.6104 17.2778 17.1152 17.773 16.5371 18.1555C15.2423 19.0122 13.4447 19.0122 9.84961 19.0122C6.25447 19.0122 4.4569 19.0122 3.16216 18.1555C2.584 17.773 2.08886 17.2778 1.7063 16.6997C0.849609 15.4049 0.849609 13.6073 0.849609 10.0122ZM14.5089 10.0124C14.5089 12.5858 12.4228 14.6718 9.84945 14.6718C7.27613 14.6718 5.19004 12.5858 5.19004 10.0124C5.19004 7.43911 7.27613 5.35303 9.84945 5.35303C12.4228 5.35303 14.5089 7.43911 14.5089 10.0124ZM9.84945 13.0954C11.5521 13.0954 12.9325 11.7151 12.9325 10.0124C12.9325 8.30974 11.5521 6.92943 9.84945 6.92943C8.14675 6.92943 6.76645 8.30974 6.76645 10.0124C6.76645 11.7151 8.14675 13.0954 9.84945 13.0954ZM14.6929 6.21376C15.2975 6.21376 15.7877 5.72359 15.7877 5.11893C15.7877 4.51428 15.2975 4.02411 14.6929 4.02411C14.0882 4.02411 13.5981 4.51428 13.5981 5.11893C13.5981 5.72359 14.0882 6.21376 14.6929 6.21376Z" fill="white"/>
</svg>
