<svg width="15" height="20" viewBox="0 0 15 20" fill="none" xmlns="http://www.w3.org/2000/svg">
<path d="M7.11419 11.9997L1.16994 11.3075C0.81744 11.2703 0.591523 11.0837 0.49219 10.7477C0.392857 10.4119 0.47394 10.128 0.73544 9.89597L10.5182 1.11522C10.563 1.07022 10.6149 1.03655 10.6739 1.01422C10.7328 0.99172 10.8174 0.980469 10.9277 0.980469C11.1072 0.980469 11.2492 1.05805 11.3537 1.21322C11.4582 1.36839 11.4591 1.5318 11.3564 1.70347L7.63344 8.01897L13.6162 8.71122C13.9687 8.74839 14.1979 8.93172 14.3037 9.26122C14.4094 9.59072 14.3314 9.87147 14.0699 10.1035L4.28719 18.9035C4.24236 18.9485 4.19044 18.979 4.13144 18.995C4.07261 19.011 3.98802 19.019 3.87769 19.019C3.69819 19.019 3.56261 18.9414 3.47094 18.7862C3.37927 18.6311 3.37836 18.4741 3.46819 18.3152L7.11419 11.9997ZM5.91419 16.017L13.0932 9.64772L6.02194 8.85547L8.92394 3.94972L1.71219 10.3382L8.75844 11.1825L5.91419 16.017Z" fill="#1C1B1F"/>
</svg>
