<svg width="19" height="19" viewBox="0 0 19 19" fill="none" xmlns="http://www.w3.org/2000/svg">
<path d="M0.849609 2.93202C0.849609 2.3548 1.05232 1.87861 1.45772 1.50344C1.86312 1.12826 2.39016 0.940674 3.0388 0.940674C3.67587 0.940674 4.1913 1.12537 4.58513 1.49479C4.99053 1.87574 5.19324 2.37212 5.19324 2.98396C5.19324 3.53808 4.99633 3.99982 4.6025 4.36924C4.19711 4.7502 3.66428 4.94067 3.00405 4.94067H2.98668C2.3496 4.94067 1.83417 4.7502 1.44034 4.36924C1.04651 3.98829 0.849609 3.50921 0.849609 2.93202ZM1.07548 18.0835V6.51643H4.93262V18.0835H1.07548ZM7.06969 18.0835H10.9268V11.6247C10.9268 11.2206 10.9732 10.9089 11.0658 10.6896C11.228 10.2971 11.4741 9.96519 11.8042 9.69392C12.1344 9.42263 12.5484 9.28699 13.0465 9.28699C14.3438 9.28699 14.9925 10.1586 14.9925 11.9017V18.0835H18.8496V11.4515C18.8496 9.74297 18.4442 8.44716 17.6334 7.56405C16.8226 6.68093 15.7512 6.23937 14.4191 6.23937C12.9249 6.23937 11.7608 6.88007 10.9268 8.16145V8.19608H10.9095L10.9268 8.16145V6.51643H7.06969C7.09285 6.88583 7.10444 8.03445 7.10444 9.96232C7.10444 11.8902 7.09285 14.5972 7.06969 18.0835Z" fill="white"/>
</svg>
