<svg width="13" height="14" viewBox="0 0 13 14" fill="none" xmlns="http://www.w3.org/2000/svg">
<path d="M6.81699 13.1654C6.722 13.1654 6.6427 13.134 6.57909 13.0712C6.51547 13.0084 6.48365 12.9302 6.48365 12.8364C6.48365 12.7427 6.51547 12.663 6.57909 12.5973C6.6427 12.5316 6.722 12.4987 6.81699 12.4987H11.4869C11.6151 12.4987 11.7326 12.4453 11.8394 12.3384C11.9463 12.2316 11.9997 12.1141 11.9997 11.9859V2.01151C11.9997 1.88332 11.9463 1.7658 11.8394 1.65895C11.7326 1.55211 11.6151 1.4987 11.4869 1.4987H6.81699C6.722 1.4987 6.6427 1.46731 6.57909 1.40453C6.51547 1.34174 6.48365 1.26348 6.48365 1.16974C6.48365 1.076 6.51547 0.996289 6.57909 0.930594C6.6427 0.864886 6.722 0.832031 6.81699 0.832031H11.4869C11.8246 0.832031 12.1056 0.944185 12.3299 1.16849C12.5542 1.3928 12.6663 1.6738 12.6663 2.01151V11.9859C12.6663 12.3236 12.5542 12.6046 12.3299 12.8289C12.1056 13.0532 11.8246 13.1654 11.4869 13.1654H6.81699ZM7.05095 7.33203H0.66557C0.570806 7.33203 0.491689 7.30064 0.428216 7.23786C0.364744 7.17509 0.333008 7.09683 0.333008 7.00309C0.333008 6.90934 0.364744 6.82962 0.428216 6.76393C0.491689 6.69822 0.570806 6.66536 0.66557 6.66536H7.05095L5.80415 5.41857C5.72617 5.34057 5.6845 5.25648 5.67915 5.16628C5.67381 5.07607 5.71547 4.99247 5.80415 4.91547C5.89283 4.83847 5.97376 4.80264 6.04695 4.80799C6.12013 4.81332 6.19572 4.85499 6.27372 4.93299L7.93076 6.59005C8.05149 6.70572 8.11186 6.84067 8.11186 6.99491C8.11186 7.14914 8.05149 7.28662 7.93076 7.40734L6.27372 9.06441C6.2064 9.13171 6.13428 9.16724 6.05736 9.17099C5.98043 9.17473 5.89965 9.13759 5.81503 9.05959C5.73299 8.98161 5.6893 8.90335 5.68397 8.82482C5.67862 8.74629 5.72029 8.66269 5.80897 8.57401L7.05095 7.33203Z" fill="#252525"/>
</svg>
