<svg width="31" height="30" viewBox="0 0 31 30" fill="none" xmlns="http://www.w3.org/2000/svg">
<path d="M15.6466 30C13.5804 30 11.6384 29.6052 9.82076 28.8157C8.0031 28.0262 6.41443 26.9516 5.05476 25.5919C3.69507 24.2322 2.62046 22.6435 1.83093 20.8259C1.0414 19.0082 0.646637 17.0662 0.646637 15C0.646637 12.9295 1.0414 10.9818 1.83093 9.15704C2.62046 7.33226 3.69507 5.74465 5.05476 4.39421C6.41443 3.04379 8.0031 1.97382 9.82076 1.18429C11.6384 0.394763 13.5804 0 15.6466 0C17.7171 0 19.6648 0.394763 21.4896 1.18429C23.3144 1.97382 24.902 3.04379 26.2524 4.39421C27.6028 5.74465 28.6728 7.33226 29.4623 9.15704C30.2519 10.9818 30.6466 12.9295 30.6466 15C30.6466 17.0662 30.2519 19.0082 29.4623 20.8259C28.6728 22.6435 27.6028 24.2322 26.2524 25.5919C24.902 26.9516 23.3144 28.0262 21.4896 28.8157C19.6648 29.6052 17.7171 30 15.6466 30ZM27.9907 20.7051H10.8721L7.2823 24.2949H25.5451C26.0508 23.7721 26.5054 23.2085 26.9089 22.6042C27.3124 21.9998 27.673 21.3668 27.9907 20.7051ZM29.2236 15.7051H15.9137L12.3176 19.2949H28.5291C28.7214 18.7293 28.8803 18.148 29.0056 17.5508C29.131 16.9535 29.2036 16.3383 29.2236 15.7051ZM28.5291 10.7051H20.9458L17.324 14.2949H29.2236C29.2036 13.6617 29.131 13.0465 29.0056 12.4492C28.8803 11.852 28.7214 11.2707 28.5291 10.7051ZM25.7375 5.90171L22.3656 9.29488H27.9907C27.6922 8.67238 27.3577 8.07996 26.9869 7.51762C26.6162 6.95529 26.1997 6.41665 25.7375 5.90171ZM5.5558 24.0983L24.7684 4.94762C23.5555 3.83368 22.1733 2.96562 20.6221 2.34346C19.0708 1.72132 17.4123 1.41025 15.6466 1.41025C11.866 1.41025 8.65589 2.72899 6.0163 5.36646C3.37669 8.00393 2.05689 11.2151 2.05689 15C2.05689 16.7635 2.36796 18.414 2.9901 19.9514C3.61226 21.4888 4.4675 22.8711 5.5558 24.0983ZM15.6466 28.5898C17.2371 28.5898 18.7424 28.3348 20.1627 27.8248C21.5829 27.3148 22.8746 26.6083 24.0377 25.7051H7.2556C8.41871 26.6083 9.71144 27.3148 11.1338 27.8248C12.5562 28.3348 14.0604 28.5898 15.6466 28.5898Z" fill="#393939"/>
</svg>
