<svg width="11" height="7" viewBox="0 0 11 7" fill="#000" xmlns="http://www.w3.org/2000/svg">
<path d="M5.51529 6.02112C5.39477 6.02112 5.28259 6.00189 5.17876 5.96342C5.07491 5.92496 4.97619 5.85893 4.88261 5.76535L0.388386 1.27112C0.249919 1.13267 0.179086 0.958642 0.175886 0.749025C0.172669 0.539408 0.243503 0.362166 0.388386 0.217299C0.533253 0.0724322 0.708886 0 0.915286 0C1.12169 0 1.29732 0.0724322 1.44219 0.217299L5.51529 4.2904L9.58839 0.217299C9.72684 0.0788489 9.90087 0.00801556 10.1105 0.00479889C10.3201 0.00159889 10.4973 0.0724322 10.6422 0.217299C10.7871 0.362166 10.8595 0.537808 10.8595 0.744225C10.8595 0.950625 10.7871 1.12626 10.6422 1.27112L6.14796 5.76535C6.05438 5.85893 5.95566 5.92496 5.85181 5.96342C5.74798 6.00189 5.6358 6.02112 5.51529 6.02112Z" fill="#1C1B1F"/>
</svg>
