<svg width="19" height="18" viewBox="0 0 19 18" fill="none" xmlns="http://www.w3.org/2000/svg">
<path d="M9.40559 18C8.16109 18 6.99101 17.7638 5.89534 17.2915C4.79984 16.8192 3.84684 16.1782 3.03634 15.3685C2.22584 14.5588 1.58426 13.6067 1.11159 12.512C0.63876 11.4175 0.402344 10.2479 0.402344 9.00325C0.402344 7.75875 0.638594 6.58867 1.11109 5.493C1.58359 4.3975 2.22484 3.4445 3.03484 2.634C3.84484 1.8235 4.79734 1.18192 5.89234 0.70925C6.98734 0.236417 8.15734 0 9.40234 0C10.2665 0 11.1002 0.120501 11.9033 0.361501C12.7065 0.602501 13.4709 0.949334 14.1966 1.402C14.3313 1.484 14.42 1.59425 14.4628 1.73275C14.5058 1.87125 14.4825 1.99942 14.3928 2.11725C14.303 2.23525 14.1847 2.30517 14.0378 2.327C13.8912 2.34867 13.755 2.3185 13.6293 2.2365C12.9933 1.83267 12.3173 1.52567 11.6013 1.3155C10.8853 1.10517 10.1523 1 9.40234 1C7.18568 1 5.29818 1.77917 3.73984 3.3375C2.18151 4.89583 1.40234 6.78333 1.40234 9C1.40234 11.2167 2.18151 13.1042 3.73984 14.6625C5.29818 16.2208 7.18568 17 9.40234 17C11.619 17 13.5065 16.2208 15.0648 14.6625C16.6232 13.1042 17.4023 11.2167 17.4023 9C17.4023 8.74633 17.3918 8.5005 17.3706 8.2625C17.3494 8.02467 17.3113 7.78142 17.2561 7.53275C17.2228 7.39008 17.2417 7.25375 17.3128 7.12375C17.384 6.99375 17.4919 6.91275 17.6366 6.88075C17.7728 6.84875 17.8966 6.87375 18.0081 6.95575C18.1196 7.03775 18.192 7.148 18.2253 7.2865C18.2843 7.55833 18.3286 7.83592 18.3581 8.11925C18.3876 8.40275 18.4023 8.69633 18.4023 9C18.4023 10.245 18.1662 11.415 17.6938 12.51C17.2215 13.605 16.5805 14.5575 15.7708 15.3675C14.9612 16.1775 14.009 16.8188 12.9143 17.2913C11.8198 17.7638 10.6503 18 9.40559 18ZM7.96384 11.4923L17.3408 2.1095C17.4343 2.016 17.5481 1.96508 17.6821 1.95675C17.8161 1.94842 17.9396 2.00075 18.0526 2.11375C18.1563 2.21742 18.2081 2.334 18.2081 2.4635C18.2081 2.593 18.1549 2.71092 18.0486 2.81725L8.52934 12.3422C8.36768 12.5037 8.17918 12.5845 7.96384 12.5845C7.74851 12.5845 7.56009 12.5037 7.39859 12.3422L4.76009 9.70375C4.66643 9.61025 4.61643 9.4955 4.61009 9.3595C4.60359 9.22367 4.65359 9.10258 4.76009 8.99625C4.86643 8.88975 4.98434 8.8365 5.11384 8.8365C5.24334 8.8365 5.36134 8.88975 5.46784 8.99625L7.96384 11.4923Z" fill="#1C1B1F"/>
</svg>
