<svg width="19" height="20" viewBox="0 0 19 20" fill="none" xmlns="http://www.w3.org/2000/svg">
<path d="M8.35282 11.4304L6.55657 9.64014C6.46307 9.54647 6.34932 9.49647 6.21532 9.49014C6.08132 9.48364 5.95924 9.53555 5.84907 9.64589C5.74257 9.75222 5.68932 9.87014 5.68932 9.99964C5.68932 10.1291 5.74257 10.2471 5.84907 10.3534L7.78732 12.2919C7.94899 12.4534 8.13749 12.5341 8.35282 12.5341C8.56815 12.5341 8.75665 12.4534 8.91832 12.2919L12.9566 8.25339C13.0541 8.15605 13.1051 8.0413 13.1096 7.90914C13.1141 7.77714 13.0631 7.65605 12.9566 7.54589C12.8464 7.43555 12.7275 7.37947 12.5998 7.37764C12.4723 7.37564 12.3535 7.4298 12.2433 7.54014L8.35282 11.4304ZM6.07207 18.6151L4.75657 16.4151L2.27582 15.8919C2.07715 15.8547 1.91882 15.748 1.80082 15.5716C1.68299 15.3955 1.63432 15.208 1.65482 15.0091L1.89132 12.4534L0.20857 10.5341C0.0675705 10.3893 -0.00292969 10.2111 -0.00292969 9.99964C-0.00292969 9.78814 0.0675705 9.60997 0.20857 9.46514L1.89132 7.54589L1.65482 4.99014C1.63432 4.7913 1.68299 4.6038 1.80082 4.42764C1.91882 4.2513 2.07715 4.14455 2.27582 4.10739L4.75657 3.58414L6.07207 1.38414C6.17974 1.20597 6.32457 1.08264 6.50657 1.01414C6.68874 0.94547 6.87724 0.954719 7.07207 1.04189L9.40282 2.02664L11.7336 1.04189C11.9284 0.954719 12.1169 0.94547 12.2991 1.01414C12.4811 1.08264 12.6259 1.20597 12.7336 1.38414L14.0491 3.58414L16.5298 4.10739C16.7285 4.14455 16.8868 4.2513 17.0048 4.42764C17.1227 4.6038 17.1713 4.7913 17.1508 4.99014L16.9143 7.54589L18.5971 9.46514C18.7381 9.60997 18.8086 9.78814 18.8086 9.99964C18.8086 10.2111 18.7381 10.3893 18.5971 10.5341L16.9143 12.4534L17.1508 15.0091C17.1713 15.208 17.1227 15.3955 17.0048 15.5716C16.8868 15.748 16.7285 15.8547 16.5298 15.8919L14.0491 16.4151L12.7336 18.6151C12.6259 18.7933 12.4811 18.9166 12.2991 18.9851C12.1169 19.0538 11.9284 19.0446 11.7336 18.9574L9.40282 17.9726L7.07207 18.9574C6.87724 19.0446 6.68874 19.0538 6.50657 18.9851C6.32457 18.9166 6.17974 18.7933 6.07207 18.6151ZM6.85282 17.9496L9.40282 16.8881L11.9643 17.9496L13.4028 15.5496L16.1528 14.9381L15.9028 12.0996L17.7528 9.99964L15.9028 7.88814L16.1528 5.04964L13.4028 4.44964L11.9528 2.04964L9.40282 3.11114L6.84132 2.04964L5.40282 4.44964L2.65282 5.04964L2.90282 7.88814L1.05282 9.99964L2.90282 12.0996L2.65282 14.9496L5.40282 15.5496L6.85282 17.9496Z" fill="#1C1B1F"/>
</svg>
