<svg width="21" height="15" viewBox="0 0 21 15" fill="none" xmlns="http://www.w3.org/2000/svg">
<path d="M11.2879 13.9921L7.22568 13.9162C5.91044 13.8898 4.59191 13.9426 3.30246 13.6685C1.34089 13.259 1.20193 11.2511 1.05652 9.56682C0.856153 7.19898 0.933719 4.78817 1.31183 2.44009C1.52528 1.12258 2.36532 0.336405 3.6644 0.250855C8.04975 -0.0596203 12.4643 -0.0228257 16.8399 0.122022C17.302 0.135301 17.7673 0.207876 18.223 0.290487C20.4723 0.693405 20.5271 2.9688 20.673 4.88426C20.8184 6.81948 20.757 8.76464 20.479 10.6867C20.2561 12.2781 19.8295 13.6126 18.0291 13.7415C15.7733 13.9099 13.5693 14.0456 11.3072 14.0024C11.3073 13.9921 11.2943 13.9921 11.2879 13.9921ZM8.8997 9.96315C10.5996 8.96574 12.2671 7.98495 13.9573 6.99423C12.2542 5.99682 10.5899 5.01603 8.8997 4.02531V9.96315Z" fill="white"/>
</svg>
